{
	"asset":{
		"generator":"Khronos glTF Blender I/O v4.0.44",
		"version":"2.0"
	},
	"scene":0,
	"scenes":[
		{
			"name":"Scene",
			"nodes":[
				0
			]
		}
	],
	"nodes":[
		{
			"mesh":0,
			"name":"Text",
			"scale":[
				7,
				7,
				7
			],
			"translation":[
				-7.863123893737793,
				3.7307088375091553,
				2.1201088428497314
			]
		}
	],
	"materials":[
		{
			"doubleSided":true,
			"name":"Material.001",
			"pbrMetallicRoughness":{
				"baseColorFactor":[
					0.0009012337541207671,
					0.002731127431616187,
					0.7999992966651917,
					1
				],
				"metallicFactor":0,
				"roughnessFactor":0.5
			}
		}
	],
	"meshes":[
		{
			"name":"Text.001",
			"primitives":[
				{
					"attributes":{
						"POSITION":0,
						"NORMAL":1,
						"TEXCOORD_0":2
					},
					"indices":3,
					"material":0
				}
			]
		}
	],
	"accessors":[
		{
			"bufferView":0,
			"componentType":5126,
			"count":2398,
			"max":[
				2.257000207901001,
				0.03999999910593033,
				0.23000000417232513
			],
			"min":[
				0.07300000637769699,
				-0.03999999910593033,
				-0.6820000410079956
			],
			"type":"VEC3"
		},
		{
			"bufferView":1,
			"componentType":5126,
			"count":2398,
			"type":"VEC3"
		},
		{
			"bufferView":2,
			"componentType":5126,
			"count":2398,
			"type":"VEC2"
		},
		{
			"bufferView":3,
			"componentType":5123,
			"count":7104,
			"type":"SCALAR"
		}
	],
	"bufferViews":[
		{
			"buffer":0,
			"byteLength":28776,
			"byteOffset":0,
			"target":34962
		},
		{
			"buffer":0,
			"byteLength":28776,
			"byteOffset":28776,
			"target":34962
		},
		{
			"buffer":0,
			"byteLength":19184,
			"byteOffset":57552,
			"target":34962
		},
		{
			"buffer":0,
			"byteLength":14208,
			"byteOffset":76736,
			"target":34963
		}
	],
	"buffers":[
		{
			"byteLength":90944,
			"uri":"untitled.bin"
		}
	]
}
