{
	"asset":{
		"generator":"Khronos glTF Blender I/O v4.0.44",
		"version":"2.0"
	},
	"scene":0,
	"scenes":[
		{
			"name":"Scene",
			"nodes":[
				0,
				1
			]
		}
	],
	"nodes":[
		{
			"mesh":0,
			"name":"Plane",
			"scale":[
				10,
				10,
				10
			]
		},
		{
			"mesh":1,
			"name":"Text",
			"rotation":[
				0,
				-1,
				0,
				4.371138828673793e-08
			],
			"scale":[
				7,
				7,
				7
			],
			"translation":[
				7.91568660736084,
				1.973894476890564,
				0
			]
		}
	],
	"meshes":[
		{
			"name":"Plane",
			"primitives":[
				{
					"attributes":{
						"POSITION":0,
						"NORMAL":1,
						"TEXCOORD_0":2
					},
					"indices":3
				}
			]
		},
		{
			"name":"Text.001",
			"primitives":[
				{
					"attributes":{
						"POSITION":4,
						"NORMAL":5,
						"TEXCOORD_0":6
					},
					"indices":7
				}
			]
		}
	],
	"accessors":[
		{
			"bufferView":0,
			"componentType":5126,
			"count":4,
			"max":[
				1,
				0,
				1
			],
			"min":[
				-1,
				0,
				-1
			],
			"type":"VEC3"
		},
		{
			"bufferView":1,
			"componentType":5126,
			"count":4,
			"type":"VEC3"
		},
		{
			"bufferView":2,
			"componentType":5126,
			"count":4,
			"type":"VEC2"
		},
		{
			"bufferView":3,
			"componentType":5123,
			"count":6,
			"type":"SCALAR"
		},
		{
			"bufferView":4,
			"componentType":5126,
			"count":2398,
			"max":[
				2.257000207901001,
				0.03999999910593033,
				0.23000000417232513
			],
			"min":[
				0.07300000637769699,
				-0.03999999910593033,
				-0.6820000410079956
			],
			"type":"VEC3"
		},
		{
			"bufferView":5,
			"componentType":5126,
			"count":2398,
			"type":"VEC3"
		},
		{
			"bufferView":6,
			"componentType":5126,
			"count":2398,
			"type":"VEC2"
		},
		{
			"bufferView":7,
			"componentType":5123,
			"count":7104,
			"type":"SCALAR"
		}
	],
	"bufferViews":[
		{
			"buffer":0,
			"byteLength":48,
			"byteOffset":0,
			"target":34962
		},
		{
			"buffer":0,
			"byteLength":48,
			"byteOffset":48,
			"target":34962
		},
		{
			"buffer":0,
			"byteLength":32,
			"byteOffset":96,
			"target":34962
		},
		{
			"buffer":0,
			"byteLength":12,
			"byteOffset":128,
			"target":34963
		},
		{
			"buffer":0,
			"byteLength":28776,
			"byteOffset":140,
			"target":34962
		},
		{
			"buffer":0,
			"byteLength":28776,
			"byteOffset":28916,
			"target":34962
		},
		{
			"buffer":0,
			"byteLength":19184,
			"byteOffset":57692,
			"target":34962
		},
		{
			"buffer":0,
			"byteLength":14208,
			"byteOffset":76876,
			"target":34963
		}
	],
	"buffers":[
		{
			"byteLength":91084,
			"uri":"untitled.bin"
		}
	]
}
